# xmcd
#
# Track frame offsets:
# 150
# 16792
# 37856
# 52631
# 70392
# 84977
# 104507
# 120538
# 136575
#
# Disc length: 2077 seconds
#
# Revision: 0
# Processed by: cddbd v1.4PL0 Copyright (c) Steve Scherf et al.
# Submitted via: Audion 3.0.2 (http://www.panic.com/audion/)
#
DISCID=60081b09
DTITLE=chingy - Anjles mix
DYEAR=1900
DGENRE=
TTITLE0=right thurr
TTITLE1=hey
TTITLE2=in da club
TTITLE3=yo
TTITLE4=whats up
TTITLE5=cool
TTITLE6=yeah
TTITLE7=peoples
TTITLE8=bad boy 2 the sound track
EXTD=
EXTT0=
EXTT1=
EXTT2=
EXTT3=
EXTT4=
EXTT5=
EXTT6=
EXTT7=
EXTT8=
PLAYORDER=
